====================
./demos/agilex_mob_training_tasks_agilex_arrange_dishes/demo.mp4
Input #0, mov,mp4,m4a,3gp,3g2,mj2, from './demos/agilex_mob_training_tasks_agilex_arrange_dishes/demo.mp4':
  Metadata:
    major_brand     : isom
    minor_version   : 512
    compatible_brands: isomiso2avc1mp41
    encoder         : Lavf61.7.100
  Duration: 00:00:40.03, start: 0.000000, bitrate: 4096 kb/s
  Stream #0:0[0x1](und): Video: h264 (High) (avc1 / 0x31637661), yuv420p(progressive), 1280x960 [SAR 1:1 DAR 4:3], 4093 kb/s, 30 fps, 30 tbr, 15360 tbn (default)
      Metadata:
        handler_name    : VideoHandler
        vendor_id       : [0][0][0][0]
        encoder         : Lavc61.19.101 libx264
====================
./demos/agilex_mob_training_tasks_agilex_cobotmagic2_dualArm-gripper-3cameras_5_navigate_clean/demo.mp4
Input #0, mov,mp4,m4a,3gp,3g2,mj2, from './demos/agilex_mob_training_tasks_agilex_cobotmagic2_dualArm-gripper-3cameras_5_navigate_clean/demo.mp4':
  Metadata:
    major_brand     : isom
    minor_version   : 512
    compatible_brands: isomiso2avc1mp41
    encoder         : Lavf61.7.100
  Duration: 00:00:40.03, start: 0.000000, bitrate: 2455 kb/s
  Stream #0:0[0x1](und): Video: h264 (High) (avc1 / 0x31637661), yuv420p(progressive), 1280x960 [SAR 1:1 DAR 4:3], 2452 kb/s, 30 fps, 30 tbr, 15360 tbn (default)
      Metadata:
        handler_name    : VideoHandler
        vendor_id       : [0][0][0][0]
        encoder         : Lavc61.19.101 libx264
====================
./demos/agilex_mob_training_tasks_agilex_cobotmagic2_dualArm-gripper-3cameras_5_navigate_insert_tube/demo.mp4
Input #0, mov,mp4,m4a,3gp,3g2,mj2, from './demos/agilex_mob_training_tasks_agilex_cobotmagic2_dualArm-gripper-3cameras_5_navigate_insert_tube/demo.mp4':
  Metadata:
    major_brand     : isom
    minor_version   : 512
    compatible_brands: isomiso2avc1mp41
    encoder         : Lavf61.7.100
  Duration: 00:00:40.03, start: 0.000000, bitrate: 2705 kb/s
  Stream #0:0[0x1](und): Video: h264 (High) (avc1 / 0x31637661), yuv420p(progressive), 1280x960 [SAR 1:1 DAR 4:3], 2702 kb/s, 30 fps, 30 tbr, 15360 tbn (default)
      Metadata:
        handler_name    : VideoHandler
        vendor_id       : [0][0][0][0]
        encoder         : Lavc61.19.101 libx264
====================
./demos/agilex_mob_training_tasks_agilex_cobotmagic2_dualArm-gripper-3cameras_5_navigate_move_to_plate/demo.mp4
Input #0, mov,mp4,m4a,3gp,3g2,mj2, from './demos/agilex_mob_training_tasks_agilex_cobotmagic2_dualArm-gripper-3cameras_5_navigate_move_to_plate/demo.mp4':
  Metadata:
    major_brand     : isom
    minor_version   : 512
    compatible_brands: isomiso2avc1mp41
    encoder         : Lavf61.7.100
  Duration: 00:00:40.03, start: 0.000000, bitrate: 3268 kb/s
  Stream #0:0[0x1](und): Video: h264 (High) (avc1 / 0x31637661), yuv420p(progressive), 1280x960 [SAR 1:1 DAR 4:3], 3265 kb/s, 30 fps, 30 tbr, 15360 tbn (default)
      Metadata:
        handler_name    : VideoHandler
        vendor_id       : [0][0][0][0]
        encoder         : Lavc61.19.101 libx264
====================
./demos/agilex_training_tasks_agilex_2_make_sandwich/demo.mp4
Input #0, mov,mp4,m4a,3gp,3g2,mj2, from './demos/agilex_training_tasks_agilex_2_make_sandwich/demo.mp4':
  Metadata:
    major_brand     : isom
    minor_version   : 512
    compatible_brands: isomiso2avc1mp41
    encoder         : Lavf61.7.100
  Duration: 00:00:40.03, start: 0.000000, bitrate: 3064 kb/s
  Stream #0:0[0x1](und): Video: h264 (High) (avc1 / 0x31637661), yuv420p(progressive), 1280x960 [SAR 1:1 DAR 4:3], 3061 kb/s, 30 fps, 30 tbr, 15360 tbn (default)
      Metadata:
        handler_name    : VideoHandler
        vendor_id       : [0][0][0][0]
        encoder         : Lavc61.19.101 libx264
====================
./demos/agilex_training_tasks_agilex_2_pour_meat_into_the_plate/demo.mp4
Input #0, mov,mp4,m4a,3gp,3g2,mj2, from './demos/agilex_training_tasks_agilex_2_pour_meat_into_the_plate/demo.mp4':
  Metadata:
    major_brand     : isom
    minor_version   : 512
    compatible_brands: isomiso2avc1mp41
    encoder         : Lavf61.7.100
  Duration: 00:00:40.03, start: 0.000000, bitrate: 3230 kb/s
  Stream #0:0[0x1](und): Video: h264 (High) (avc1 / 0x31637661), yuv420p(progressive), 1280x960 [SAR 1:1 DAR 4:3], 3227 kb/s, 30 fps, 30 tbr, 15360 tbn (default)
      Metadata:
        handler_name    : VideoHandler
        vendor_id       : [0][0][0][0]
        encoder         : Lavc61.19.101 libx264
====================
./demos/agilex_training_tasks_agilex_cobotmagic2_dualArm-gripper-3cameras_2_assemble_PVC_drainage_pipe_clamps/demo.mp4
Input #0, mov,mp4,m4a,3gp,3g2,mj2, from './demos/agilex_training_tasks_agilex_cobotmagic2_dualArm-gripper-3cameras_2_assemble_PVC_drainage_pipe_clamps/demo.mp4':
  Metadata:
    major_brand     : isom
    minor_version   : 512
    compatible_brands: isomiso2avc1mp41
    encoder         : Lavf61.7.100
  Duration: 00:00:40.03, start: 0.000000, bitrate: 2272 kb/s
  Stream #0:0[0x1](und): Video: h264 (High) (avc1 / 0x31637661), yuv420p(progressive), 1280x960 [SAR 1:1 DAR 4:3], 2269 kb/s, 30 fps, 30 tbr, 15360 tbn (default)
      Metadata:
        handler_name    : VideoHandler
        vendor_id       : [0][0][0][0]
        encoder         : Lavc61.19.101 libx264
====================
./demos/agilex_training_tasks_agilex_cobotmagic2_dualArm-gripper-3cameras_2_make_sandwich_and_place_on_tray_250507/demo.mp4
Input #0, mov,mp4,m4a,3gp,3g2,mj2, from './demos/agilex_training_tasks_agilex_cobotmagic2_dualArm-gripper-3cameras_2_make_sandwich_and_place_on_tray_250507/demo.mp4':
  Metadata:
    major_brand     : isom
    minor_version   : 512
    compatible_brands: isomiso2avc1mp41
    encoder         : Lavf61.7.100
  Duration: 00:00:40.03, start: 0.000000, bitrate: 3183 kb/s
  Stream #0:0[0x1](und): Video: h264 (High) (avc1 / 0x31637661), yuv420p(progressive), 1280x960 [SAR 1:1 DAR 4:3], 3180 kb/s, 30 fps, 30 tbr, 15360 tbn (default)
      Metadata:
        handler_name    : VideoHandler
        vendor_id       : [0][0][0][0]
        encoder         : Lavc61.19.101 libx264
====================
./demos/agilex_training_tasks_agilex_cobotmagic2_dualArm-gripper-3cameras_2_move_yellow_beetle_car_and_pick_and_place_it_into_the_blue_storage_box_20250430/demo.mp4
Input #0, mov,mp4,m4a,3gp,3g2,mj2, from './demos/agilex_training_tasks_agilex_cobotmagic2_dualArm-gripper-3cameras_2_move_yellow_beetle_car_and_pick_and_place_it_into_the_blue_storage_box_20250430/demo.mp4':
  Metadata:
    major_brand     : isom
    minor_version   : 512
    compatible_brands: isomiso2avc1mp41
    encoder         : Lavf61.7.100
  Duration: 00:00:40.03, start: 0.000000, bitrate: 3679 kb/s
  Stream #0:0[0x1](und): Video: h264 (High) (avc1 / 0x31637661), yuv420p(progressive), 1280x960 [SAR 1:1 DAR 4:3], 3676 kb/s, 30 fps, 30 tbr, 15360 tbn (default)
      Metadata:
        handler_name    : VideoHandler
        vendor_id       : [0][0][0][0]
        encoder         : Lavc61.19.101 libx264
====================
./demos/agilex_training_tasks_gpt_agilex_cobotmagic2_dualArm-gripper-3cameras_2_sort_parts_20250527/demo.mp4
Input #0, mov,mp4,m4a,3gp,3g2,mj2, from './demos/agilex_training_tasks_gpt_agilex_cobotmagic2_dualArm-gripper-3cameras_2_sort_parts_20250527/demo.mp4':
  Metadata:
    major_brand     : isom
    minor_version   : 512
    compatible_brands: isomiso2avc1mp41
    encoder         : Lavf61.7.100
  Duration: 00:00:40.03, start: 0.000000, bitrate: 2573 kb/s
  Stream #0:0[0x1](und): Video: h264 (High) (avc1 / 0x31637661), yuv420p(progressive), 1280x960 [SAR 1:1 DAR 4:3], 2570 kb/s, 30 fps, 30 tbr, 15360 tbn (default)
      Metadata:
        handler_name    : VideoHandler
        vendor_id       : [0][0][0][0]
        encoder         : Lavc61.19.101 libx264
====================
./demos/ark_training_tasks_ark_02_collect_button/demo.mp4
Input #0, mov,mp4,m4a,3gp,3g2,mj2, from './demos/ark_training_tasks_ark_02_collect_button/demo.mp4':
  Metadata:
    major_brand     : isom
    minor_version   : 512
    compatible_brands: isomiso2avc1mp41
    encoder         : Lavf61.7.100
  Duration: 00:00:40.03, start: 0.000000, bitrate: 10109 kb/s
  Stream #0:0[0x1](und): Video: h264 (High) (avc1 / 0x31637661), yuv420p(progressive), 1280x960 [SAR 1:1 DAR 4:3], 10106 kb/s, 30 fps, 30 tbr, 15360 tbn (default)
      Metadata:
        handler_name    : VideoHandler
        vendor_id       : [0][0][0][0]
        encoder         : Lavc61.19.101 libx264
====================
./demos/ark_training_tasks_ark_03_insert_blue_toy_into_slot_250807/demo.mp4
Input #0, mov,mp4,m4a,3gp,3g2,mj2, from './demos/ark_training_tasks_ark_03_insert_blue_toy_into_slot_250807/demo.mp4':
  Metadata:
    major_brand     : isom
    minor_version   : 512
    compatible_brands: isomiso2mp41
    encoder         : Lavf61.7.100
  Duration: 00:00:26.93, start: 0.000000, bitrate: 3205 kb/s
  Stream #0:0[0x1](und): Video: mpeg4 (Simple Profile) (mp4v / 0x7634706D), yuv420p, 1280x960 [SAR 1:1 DAR 4:3], 3204 kb/s, 30 fps, 30 tbr, 15360 tbn (default)
      Metadata:
        handler_name    : VideoHandler
        vendor_id       : [0][0][0][0]
====================
./demos/ark_training_tasks_ark_1_dual_1_place_the_milk/demo.mp4
Input #0, mov,mp4,m4a,3gp,3g2,mj2, from './demos/ark_training_tasks_ark_1_dual_1_place_the_milk/demo.mp4':
  Metadata:
    major_brand     : isom
    minor_version   : 512
    compatible_brands: isomiso2mp41
    encoder         : Lavf61.7.100
  Duration: 00:00:31.77, start: 0.000000, bitrate: 12525 kb/s
  Stream #0:0[0x1](und): Video: mpeg4 (Simple Profile) (mp4v / 0x7634706D), yuv420p, 1280x960 [SAR 1:1 DAR 4:3], 12523 kb/s, 30 fps, 30 tbr, 15360 tbn (default)
      Metadata:
        handler_name    : VideoHandler
        vendor_id       : [0][0][0][0]
====================
./demos/ark_training_tasks_ark_1_select_workpiece/demo.mp4
Input #0, mov,mp4,m4a,3gp,3g2,mj2, from './demos/ark_training_tasks_ark_1_select_workpiece/demo.mp4':
  Metadata:
    major_brand     : isom
    minor_version   : 512
    compatible_brands: isomiso2avc1mp41
    encoder         : Lavf61.7.100
  Duration: 00:00:40.03, start: 0.000000, bitrate: 3222 kb/s
  Stream #0:0[0x1](und): Video: h264 (High) (avc1 / 0x31637661), yuv420p(progressive), 1280x960 [SAR 1:1 DAR 4:3], 3220 kb/s, 30 fps, 30 tbr, 15360 tbn (default)
      Metadata:
        handler_name    : VideoHandler
        vendor_id       : [0][0][0][0]
        encoder         : Lavc61.19.101 libx264
====================
./demos/ark_training_tasks_ark_dual1_cross_move_apple_from_plate_to_bowl_250511/demo.mp4
Input #0, mov,mp4,m4a,3gp,3g2,mj2, from './demos/ark_training_tasks_ark_dual1_cross_move_apple_from_plate_to_bowl_250511/demo.mp4':
  Metadata:
    major_brand     : isom
    minor_version   : 512
    compatible_brands: isomiso2mp41
    encoder         : Lavf61.7.100
  Duration: 00:00:39.27, start: 0.000000, bitrate: 7999 kb/s
  Stream #0:0[0x1](und): Video: mpeg4 (Simple Profile) (mp4v / 0x7634706D), yuv420p, 1280x960 [SAR 1:1 DAR 4:3], 7998 kb/s, 30 fps, 30 tbr, 15360 tbn (default)
      Metadata:
        handler_name    : VideoHandler
        vendor_id       : [0][0][0][0]
====================
./demos/ark_training_tasks_gpt_ark_1_sort_fruits_250519/demo.mp4
Input #0, mov,mp4,m4a,3gp,3g2,mj2, from './demos/ark_training_tasks_gpt_ark_1_sort_fruits_250519/demo.mp4':
  Metadata:
    major_brand     : isom
    minor_version   : 512
    compatible_brands: isomiso2avc1mp41
    encoder         : Lavf61.7.100
  Duration: 00:00:40.03, start: 0.000000, bitrate: 3801 kb/s
  Stream #0:0[0x1](und): Video: h264 (High) (avc1 / 0x31637661), yuv420p(progressive), 1280x960 [SAR 1:1 DAR 4:3], 3798 kb/s, 30 fps, 30 tbr, 15360 tbn (default)
      Metadata:
        handler_name    : VideoHandler
        vendor_id       : [0][0][0][0]
        encoder         : Lavc61.19.101 libx264
====================
./demos/franka_tasks_task1/demo.mp4
Input #0, mov,mp4,m4a,3gp,3g2,mj2, from './demos/franka_tasks_task1/demo.mp4':
  Metadata:
    major_brand     : isom
    minor_version   : 512
    compatible_brands: isomiso2mp41
    encoder         : Lavf61.7.100
  Duration: 00:00:16.43, start: 0.000000, bitrate: 10703 kb/s
  Stream #0:0[0x1](und): Video: mpeg4 (Simple Profile) (mp4v / 0x7634706D), yuv420p, 1280x960 [SAR 1:1 DAR 4:3], 10702 kb/s, 30 fps, 30 tbr, 15360 tbn (default)
      Metadata:
        handler_name    : VideoHandler
        vendor_id       : [0][0][0][0]
====================
./demos/franka_tasks_task2/demo.mp4
Input #0, mov,mp4,m4a,3gp,3g2,mj2, from './demos/franka_tasks_task2/demo.mp4':
  Metadata:
    major_brand     : isom
    minor_version   : 512
    compatible_brands: isomiso2avc1mp41
    encoder         : Lavf61.7.100
  Duration: 00:00:40.03, start: 0.000000, bitrate: 2921 kb/s
  Stream #0:0[0x1](und): Video: h264 (High) (avc1 / 0x31637661), yuv420p(progressive), 1280x960 [SAR 1:1 DAR 4:3], 2918 kb/s, 30 fps, 30 tbr, 15360 tbn (default)
      Metadata:
        handler_name    : VideoHandler
        vendor_id       : [0][0][0][0]
        encoder         : Lavc61.19.101 libx264
====================
./demos/franka_tasks_task3/demo.mp4
Input #0, mov,mp4,m4a,3gp,3g2,mj2, from './demos/franka_tasks_task3/demo.mp4':
  Metadata:
    major_brand     : isom
    minor_version   : 512
    compatible_brands: isomiso2mp41
    encoder         : Lavf61.7.100
  Duration: 00:00:13.07, start: 0.000000, bitrate: 10798 kb/s
  Stream #0:0[0x1](und): Video: mpeg4 (Simple Profile) (mp4v / 0x7634706D), yuv420p, 1280x960 [SAR 1:1 DAR 4:3], 10797 kb/s, 30 fps, 30 tbr, 15360 tbn (default)
      Metadata:
        handler_name    : VideoHandler
        vendor_id       : [0][0][0][0]
====================
./demos/franka_tasks_task4/demo.mp4
Input #0, mov,mp4,m4a,3gp,3g2,mj2, from './demos/franka_tasks_task4/demo.mp4':
  Metadata:
    major_brand     : isom
    minor_version   : 512
    compatible_brands: isomiso2mp41
    encoder         : Lavf61.7.100
  Duration: 00:00:07.93, start: 0.000000, bitrate: 9520 kb/s
  Stream #0:0[0x1](und): Video: mpeg4 (Simple Profile) (mp4v / 0x7634706D), yuv420p, 1280x960 [SAR 1:1 DAR 4:3], 9518 kb/s, 30 fps, 30 tbr, 15360 tbn (default)
      Metadata:
        handler_name    : VideoHandler
        vendor_id       : [0][0][0][0]
====================
./demos/franka_tasks_task5/demo.mp4
Input #0, mov,mp4,m4a,3gp,3g2,mj2, from './demos/franka_tasks_task5/demo.mp4':
  Metadata:
    major_brand     : isom
    minor_version   : 512
    compatible_brands: isomiso2mp41
    encoder         : Lavf61.7.100
  Duration: 00:00:15.17, start: 0.000000, bitrate: 10059 kb/s
  Stream #0:0[0x1](und): Video: mpeg4 (Simple Profile) (mp4v / 0x7634706D), yuv420p, 1280x960 [SAR 1:1 DAR 4:3], 10058 kb/s, 30 fps, 30 tbr, 15360 tbn (default)
      Metadata:
        handler_name    : VideoHandler
        vendor_id       : [0][0][0][0]
====================
./demos/franka_tasks_task6/demo.mp4
Input #0, mov,mp4,m4a,3gp,3g2,mj2, from './demos/franka_tasks_task6/demo.mp4':
  Metadata:
    major_brand     : isom
    minor_version   : 512
    compatible_brands: isomiso2mp41
    encoder         : Lavf61.7.100
  Duration: 00:00:12.47, start: 0.000000, bitrate: 11116 kb/s
  Stream #0:0[0x1](und): Video: mpeg4 (Simple Profile) (mp4v / 0x7634706D), yuv420p, 1280x960 [SAR 1:1 DAR 4:3], 11114 kb/s, 30 fps, 30 tbr, 15360 tbn (default)
      Metadata:
        handler_name    : VideoHandler
        vendor_id       : [0][0][0][0]
====================
./demos/tianyi_mob_training_tasks_tienkung_prod2_dualArm-dexHand-1cameras_1_clean_the_dust/demo.mp4
Input #0, mov,mp4,m4a,3gp,3g2,mj2, from './demos/tianyi_mob_training_tasks_tienkung_prod2_dualArm-dexHand-1cameras_1_clean_the_dust/demo.mp4':
  Metadata:
    major_brand     : isom
    minor_version   : 512
    compatible_brands: isomiso2mp41
    encoder         : Lavf61.7.100
  Duration: 00:00:13.00, start: 0.000000, bitrate: 13847 kb/s
  Stream #0:0[0x1](und): Video: mpeg4 (Simple Profile) (mp4v / 0x7634706D), yuv420p, 1280x960 [SAR 1:1 DAR 4:3], 13845 kb/s, 30 fps, 30 tbr, 15360 tbn (default)
      Metadata:
        handler_name    : VideoHandler
        vendor_id       : [0][0][0][0]
====================
./demos/tianyi_mob_training_tasks_tienkung_prod2_dualArm-dexHand-1cameras_1_Pick_and_Place_apple/demo.mp4
Input #0, mov,mp4,m4a,3gp,3g2,mj2, from './demos/tianyi_mob_training_tasks_tienkung_prod2_dualArm-dexHand-1cameras_1_Pick_and_Place_apple/demo.mp4':
  Metadata:
    major_brand     : isom
    minor_version   : 512
    compatible_brands: isomiso2mp41
    encoder         : Lavf61.7.100
  Duration: 00:00:12.27, start: 0.000000, bitrate: 15507 kb/s
  Stream #0:0[0x1](und): Video: mpeg4 (Simple Profile) (mp4v / 0x7634706D), yuv420p, 1280x960 [SAR 1:1 DAR 4:3], 15505 kb/s, 30 fps, 30 tbr, 15360 tbn (default)
      Metadata:
        handler_name    : VideoHandler
        vendor_id       : [0][0][0][0]
====================
./demos/tianyi_mob_training_tasks_tienkung_prod2_dualArm-dexHand-1cameras_1_pick_and_place_onto_desktop/demo.mp4
Input #0, mov,mp4,m4a,3gp,3g2,mj2, from './demos/tianyi_mob_training_tasks_tienkung_prod2_dualArm-dexHand-1cameras_1_pick_and_place_onto_desktop/demo.mp4':
  Metadata:
    major_brand     : isom
    minor_version   : 512
    compatible_brands: isomiso2mp41
    encoder         : Lavf61.7.100
  Duration: 00:00:13.13, start: 0.000000, bitrate: 12670 kb/s
  Stream #0:0[0x1](und): Video: mpeg4 (Simple Profile) (mp4v / 0x7634706D), yuv420p, 1280x960 [SAR 1:1 DAR 4:3], 12669 kb/s, 30 fps, 30 tbr, 15360 tbn (default)
      Metadata:
        handler_name    : VideoHandler
        vendor_id       : [0][0][0][0]
====================
./demos/tianyi_mob_training_tasks_tienkung_prod2_dualArm-dexHand-1cameras_1_pick_and_place_yellow_cube_in_box/demo.mp4
Input #0, mov,mp4,m4a,3gp,3g2,mj2, from './demos/tianyi_mob_training_tasks_tienkung_prod2_dualArm-dexHand-1cameras_1_pick_and_place_yellow_cube_in_box/demo.mp4':
  Metadata:
    major_brand     : isom
    minor_version   : 512
    compatible_brands: isomiso2mp41
    encoder         : Lavf61.7.100
  Duration: 00:00:09.50, start: 0.000000, bitrate: 13294 kb/s
  Stream #0:0[0x1](und): Video: mpeg4 (Simple Profile) (mp4v / 0x7634706D), yuv420p, 1280x960 [SAR 1:1 DAR 4:3], 13292 kb/s, 30 fps, 30 tbr, 15360 tbn (default)
      Metadata:
        handler_name    : VideoHandler
        vendor_id       : [0][0][0][0]
====================
./demos/tienkung_training_tasks_tienkung_pro2_2_open_pot_lid/demo.mp4
Input #0, mov,mp4,m4a,3gp,3g2,mj2, from './demos/tienkung_training_tasks_tienkung_pro2_2_open_pot_lid/demo.mp4':
  Metadata:
    major_brand     : isom
    minor_version   : 512
    compatible_brands: isomiso2mp41
    encoder         : Lavf61.7.100
  Duration: 00:00:13.43, start: 0.000000, bitrate: 9493 kb/s
  Stream #0:0[0x1](und): Video: mpeg4 (Simple Profile) (mp4v / 0x7634706D), yuv420p, 1280x960 [SAR 1:1 DAR 4:3], 9492 kb/s, 30 fps, 30 tbr, 15360 tbn (default)
      Metadata:
        handler_name    : VideoHandler
        vendor_id       : [0][0][0][0]
====================
./demos/tienkung_training_tasks_tienkung_pro2_2_stack_the_cup/demo.mp4
Input #0, mov,mp4,m4a,3gp,3g2,mj2, from './demos/tienkung_training_tasks_tienkung_pro2_2_stack_the_cup/demo.mp4':
  Metadata:
    major_brand     : isom
    minor_version   : 512
    compatible_brands: isomiso2mp41
    encoder         : Lavf61.7.100
  Duration: 00:00:19.10, start: 0.000000, bitrate: 6038 kb/s
  Stream #0:0[0x1](und): Video: mpeg4 (Simple Profile) (mp4v / 0x7634706D), yuv420p, 1280x960 [SAR 1:1 DAR 4:3], 6036 kb/s, 30 fps, 30 tbr, 15360 tbn (default)
      Metadata:
        handler_name    : VideoHandler
        vendor_id       : [0][0][0][0]
====================
./demos/tienkung_training_tasks_tienkung_pro2_dualArm-gripper-1cameras_2_1_find_out_circuit_breaker_into_the_other_tray/demo.mp4
Input #0, mov,mp4,m4a,3gp,3g2,mj2, from './demos/tienkung_training_tasks_tienkung_pro2_dualArm-gripper-1cameras_2_1_find_out_circuit_breaker_into_the_other_tray/demo.mp4':
  Metadata:
    major_brand     : isom
    minor_version   : 512
    compatible_brands: isomiso2mp41
    encoder         : Lavf61.7.100
  Duration: 00:00:12.13, start: 0.000000, bitrate: 16167 kb/s
  Stream #0:0[0x1](und): Video: mpeg4 (Simple Profile) (mp4v / 0x7634706D), yuv420p, 1280x960 [SAR 1:1 DAR 4:3], 16165 kb/s, 30 fps, 30 tbr, 15360 tbn (default)
      Metadata:
        handler_name    : VideoHandler
        vendor_id       : [0][0][0][0]
====================
./demos/tienkung_training_tasks_tienkung_pro2_dualArm-gripper-1cameras_2_pour_oil_for_gear/demo.mp4
Input #0, mov,mp4,m4a,3gp,3g2,mj2, from './demos/tienkung_training_tasks_tienkung_pro2_dualArm-gripper-1cameras_2_pour_oil_for_gear/demo.mp4':
  Metadata:
    major_brand     : isom
    minor_version   : 512
    compatible_brands: isomiso2mp41
    encoder         : Lavf61.7.100
  Duration: 00:00:19.40, start: 0.000000, bitrate: 17823 kb/s
  Stream #0:0[0x1](und): Video: mpeg4 (Simple Profile) (mp4v / 0x7634706D), yuv420p, 1280x960 [SAR 1:1 DAR 4:3], 17821 kb/s, 30 fps, 30 tbr, 15360 tbn (default)
      Metadata:
        handler_name    : VideoHandler
        vendor_id       : [0][0][0][0]
====================
./demos/tienkung_training_tasks_tienkung_pro2_dualArm-gripper-1cameras_2_press_stop_button_of_control_box/demo.mp4
Input #0, mov,mp4,m4a,3gp,3g2,mj2, from './demos/tienkung_training_tasks_tienkung_pro2_dualArm-gripper-1cameras_2_press_stop_button_of_control_box/demo.mp4':
  Metadata:
    major_brand     : isom
    minor_version   : 512
    compatible_brands: isomiso2mp41
    encoder         : Lavf61.7.100
  Duration: 00:00:09.33, start: 0.000000, bitrate: 13043 kb/s
  Stream #0:0[0x1](und): Video: mpeg4 (Simple Profile) (mp4v / 0x7634706D), yuv420p, 1280x960 [SAR 1:1 DAR 4:3], 13041 kb/s, 30 fps, 30 tbr, 15360 tbn (default)
      Metadata:
        handler_name    : VideoHandler
        vendor_id       : [0][0][0][0]
====================
./demos/tienkung_training_tasks_tienkung_pro2_dualArm-gripper-1cameras_2_sweep_electronic_rubbish/demo.mp4
Input #0, mov,mp4,m4a,3gp,3g2,mj2, from './demos/tienkung_training_tasks_tienkung_pro2_dualArm-gripper-1cameras_2_sweep_electronic_rubbish/demo.mp4':
  Metadata:
    major_brand     : isom
    minor_version   : 512
    compatible_brands: isomiso2mp41
    encoder         : Lavf61.7.100
  Duration: 00:00:20.87, start: 0.000000, bitrate: 16623 kb/s
  Stream #0:0[0x1](und): Video: mpeg4 (Simple Profile) (mp4v / 0x7634706D), yuv420p, 1280x960 [SAR 1:1 DAR 4:3], 16621 kb/s, 30 fps, 30 tbr, 15360 tbn (default)
      Metadata:
        handler_name    : VideoHandler
        vendor_id       : [0][0][0][0]
====================
./demos/ur_training_tasks_ur_training_task_1/demo.mp4
Input #0, mov,mp4,m4a,3gp,3g2,mj2, from './demos/ur_training_tasks_ur_training_task_1/demo.mp4':
  Metadata:
    major_brand     : isom
    minor_version   : 512
    compatible_brands: isomiso2mp41
    encoder         : Lavf61.7.100
  Duration: 00:00:06.87, start: 0.000000, bitrate: 10684 kb/s
  Stream #0:0[0x1](und): Video: mpeg4 (Simple Profile) (mp4v / 0x7634706D), yuv420p, 1280x960 [SAR 1:1 DAR 4:3], 10682 kb/s, 30 fps, 30 tbr, 15360 tbn (default)
      Metadata:
        handler_name    : VideoHandler
        vendor_id       : [0][0][0][0]
====================
./demos/ur_training_tasks_ur_training_task_2/demo.mp4
Input #0, mov,mp4,m4a,3gp,3g2,mj2, from './demos/ur_training_tasks_ur_training_task_2/demo.mp4':
  Metadata:
    major_brand     : isom
    minor_version   : 512
    compatible_brands: isomiso2mp41
    encoder         : Lavf61.7.100
  Duration: 00:00:06.63, start: 0.000000, bitrate: 9752 kb/s
  Stream #0:0[0x1](und): Video: mpeg4 (Simple Profile) (mp4v / 0x7634706D), yuv420p, 1280x960 [SAR 1:1 DAR 4:3], 9750 kb/s, 30 fps, 30 tbr, 15360 tbn (default)
      Metadata:
        handler_name    : VideoHandler
        vendor_id       : [0][0][0][0]
====================
./demos/ur_training_tasks_ur_training_task_3/demo.mp4
Input #0, mov,mp4,m4a,3gp,3g2,mj2, from './demos/ur_training_tasks_ur_training_task_3/demo.mp4':
  Metadata:
    major_brand     : isom
    minor_version   : 512
    compatible_brands: isomiso2mp41
    encoder         : Lavf61.7.100
  Duration: 00:00:06.27, start: 0.000000, bitrate: 14550 kb/s
  Stream #0:0[0x1](und): Video: mpeg4 (Simple Profile) (mp4v / 0x7634706D), yuv420p, 1280x960 [SAR 1:1 DAR 4:3], 14548 kb/s, 30 fps, 30 tbr, 15360 tbn (default)
      Metadata:
        handler_name    : VideoHandler
        vendor_id       : [0][0][0][0]
====================
./demos/ur_training_tasks_ur_training_task_4/demo.mp4
Input #0, mov,mp4,m4a,3gp,3g2,mj2, from './demos/ur_training_tasks_ur_training_task_4/demo.mp4':
  Metadata:
    major_brand     : isom
    minor_version   : 512
    compatible_brands: isomiso2mp41
    encoder         : Lavf61.7.100
  Duration: 00:00:11.23, start: 0.000000, bitrate: 17414 kb/s
  Stream #0:0[0x1](und): Video: mpeg4 (Simple Profile) (mp4v / 0x7634706D), yuv420p, 1280x960 [SAR 1:1 DAR 4:3], 17412 kb/s, 30 fps, 30 tbr, 15360 tbn (default)
      Metadata:
        handler_name    : VideoHandler
        vendor_id       : [0][0][0][0]
====================
./demos/ur_training_tasks_ur_training_task_5/demo.mp4
Input #0, mov,mp4,m4a,3gp,3g2,mj2, from './demos/ur_training_tasks_ur_training_task_5/demo.mp4':
  Metadata:
    major_brand     : isom
    minor_version   : 512
    compatible_brands: isomiso2mp41
    encoder         : Lavf61.7.100
  Duration: 00:00:07.27, start: 0.000000, bitrate: 8676 kb/s
  Stream #0:0[0x1](und): Video: mpeg4 (Simple Profile) (mp4v / 0x7634706D), yuv420p, 1280x960 [SAR 1:1 DAR 4:3], 8674 kb/s, 30 fps, 30 tbr, 15360 tbn (default)
      Metadata:
        handler_name    : VideoHandler
        vendor_id       : [0][0][0][0]
====================
./demos/ur_training_tasks_ur_training_task_6/demo.mp4
Input #0, mov,mp4,m4a,3gp,3g2,mj2, from './demos/ur_training_tasks_ur_training_task_6/demo.mp4':
  Metadata:
    major_brand     : isom
    minor_version   : 512
    compatible_brands: isomiso2mp41
    encoder         : Lavf61.7.100
  Duration: 00:00:06.93, start: 0.000000, bitrate: 8706 kb/s
  Stream #0:0[0x1](und): Video: mpeg4 (Simple Profile) (mp4v / 0x7634706D), yuv420p, 1280x960 [SAR 1:1 DAR 4:3], 8703 kb/s, 30 fps, 30 tbr, 15360 tbn (default)
      Metadata:
        handler_name    : VideoHandler
        vendor_id       : [0][0][0][0]
